<mxfile host="app.diagrams.net" agent="Mozilla/5.0 (Windows NT 10.0; Win64; x64) AppleWebKit/537.36 (KHTML, like Gecko) Chrome/139.0.0.0 Safari/537.36" version="28.1.0">
  <diagram name="Flowmap Pengaduan Masyarakat" id="flowmap-pengaduan">
    <mxGraphModel dx="1424" dy="810" grid="1" gridSize="10" guides="1" tooltips="1" connect="1" arrows="1" fold="1" page="1" pageScale="1" pageWidth="1200" pageHeight="1600" math="0" shadow="0">
      <root>
        <mxCell id="0" />
        <mxCell id="1" parent="0" />
        <mxCell id="lane-user" value="MASYARAKAT (USER)" style="swimlane;startSize=40;html=1;fontSize=14;fontStyle=1;fillColor=#e1f5fe;strokeColor=#01579b;swimlaneFillColor=#f0f8ff;" parent="1" vertex="1">
          <mxGeometry x="60" y="80" width="310" height="1510" as="geometry" />
        </mxCell>
        <mxCell id="user-1" value="&lt;font style=&quot;font-size: 14px;&quot;&gt;&lt;b&gt;Membuka Website&lt;br&gt;Pengaduan&lt;/b&gt;&lt;/font&gt;" style="rounded=1;whiteSpace=wrap;html=1;fontSize=11;fillColor=#bbdefb;strokeColor=#1976d2;" parent="lane-user" vertex="1">
          <mxGeometry x="80" y="160" width="140" height="60" as="geometry" />
        </mxCell>
        <mxCell id="user-2" value="&lt;font style=&quot;font-size: 14px;&quot;&gt;&lt;b&gt;Mengisi Form&lt;br&gt;Pengaduan&lt;/b&gt;&lt;/font&gt;" style="shape=parallelogram;perimeter=parallelogramPerimeter;whiteSpace=wrap;html=1;fixedSize=1;fontSize=11;fillColor=#bbdefb;strokeColor=#1976d2;" parent="lane-user" vertex="1">
          <mxGeometry x="80" y="260" width="140" height="60" as="geometry" />
        </mxCell>
        <mxCell id="user-4" value="&lt;font style=&quot;font-size: 14px;&quot;&gt;&lt;b&gt;Menerima Notifikasi&lt;br&gt;atau Lacak Aduan&lt;/b&gt;&lt;/font&gt;" style="rounded=1;whiteSpace=wrap;html=1;fontSize=11;fillColor=#bbdefb;strokeColor=#1976d2;" parent="lane-user" vertex="1">
          <mxGeometry x="90" y="1260" width="140" height="60" as="geometry" />
        </mxCell>
        <mxCell id="TkkFKuVTol_qKiPYe6n6-1" value="" style="shape=ellipse;html=1;fillColor=#000000;strokeWidth=2;verticalLabelPosition=bottom;verticalAlignment=top;perimeter=ellipsePerimeter;strokeColor=#1A1A1A;" vertex="1" parent="lane-user">
          <mxGeometry x="130" y="80" width="40" height="40" as="geometry" />
        </mxCell>
        <mxCell id="TkkFKuVTol_qKiPYe6n6-2" value="" style="html=1;shape=mxgraph.sysml.actFinal;strokeWidth=2;verticalLabelPosition=bottom;verticalAlignment=top;" vertex="1" parent="lane-user">
          <mxGeometry x="135" y="1410" width="50" height="50" as="geometry" />
        </mxCell>
        <mxCell id="lane-system" value="SISTEM (WEB PENGADUAN)" style="swimlane;startSize=40;html=1;fontSize=14;fontStyle=1;fillColor=#e8f5e8;strokeColor=#2e7d32;swimlaneFillColor=#f8fff8;" parent="1" vertex="1">
          <mxGeometry x="360" y="80" width="350" height="1510" as="geometry" />
        </mxCell>
        <mxCell id="system-1" value="&lt;font style=&quot;font-size: 14px;&quot;&gt;&lt;b&gt;Menerima Data&lt;br&gt;Pengaduan&lt;/b&gt;&lt;/font&gt;" style="rounded=1;whiteSpace=wrap;html=1;fontSize=11;fillColor=#c8e6c9;strokeColor=#2e7d32;" parent="lane-system" vertex="1">
          <mxGeometry x="105" y="395" width="140" height="60" as="geometry" />
        </mxCell>
        <mxCell id="system-2" value="&lt;font style=&quot;font-size: 14px;&quot;&gt;&lt;b&gt;Klasifikasi Prioritas&lt;br&gt;Otomatis&lt;/b&gt;&lt;/font&gt;" style="rounded=1;whiteSpace=wrap;html=1;fontSize=11;fillColor=#c8e6c9;strokeColor=#2e7d32;" parent="lane-system" vertex="1">
          <mxGeometry x="105" y="500" width="140" height="60" as="geometry" />
        </mxCell>
        <mxCell id="system-decision" value="&lt;font style=&quot;font-size: 14px;&quot;&gt;&lt;b&gt;Prioritas?&lt;/b&gt;&lt;/font&gt;" style="rhombus;whiteSpace=wrap;html=1;fontSize=11;fillColor=#fff9c4;strokeColor=#f57f17;" parent="lane-system" vertex="1">
          <mxGeometry x="130" y="590" width="90" height="80" as="geometry" />
        </mxCell>
        <mxCell id="priority-high" value="&lt;font style=&quot;font-size: 14px;&quot;&gt;&lt;b&gt;TINGGI&lt;/b&gt;&lt;/font&gt;" style="rounded=1;whiteSpace=wrap;html=1;fontSize=10;fillColor=#ffcdd2;strokeColor=#d32f2f;" parent="lane-system" vertex="1">
          <mxGeometry x="10" y="730" width="70" height="40" as="geometry" />
        </mxCell>
        <mxCell id="priority-medium" value="&lt;b&gt;&lt;font style=&quot;font-size: 14px;&quot;&gt;SEDANG&lt;/font&gt;&lt;/b&gt;" style="rounded=1;whiteSpace=wrap;html=1;fontSize=10;fillColor=#fff3e0;strokeColor=#f57c00;" parent="lane-system" vertex="1">
          <mxGeometry x="140" y="730" width="70" height="40" as="geometry" />
        </mxCell>
        <mxCell id="priority-low" value="&lt;font style=&quot;font-size: 14px;&quot;&gt;&lt;b&gt;RENDAH&lt;/b&gt;&lt;/font&gt;" style="rounded=1;whiteSpace=wrap;html=1;fontSize=10;fillColor=#e8f5e8;strokeColor=#4caf50;" parent="lane-system" vertex="1">
          <mxGeometry x="260" y="730" width="70" height="40" as="geometry" />
        </mxCell>
        <mxCell id="system-3" value="&lt;font style=&quot;font-size: 14px;&quot;&gt;&lt;b&gt;Mengirim ke&lt;br&gt;Dashboard Admin&lt;/b&gt;&lt;/font&gt;" style="rounded=1;whiteSpace=wrap;html=1;fontSize=11;fillColor=#c8e6c9;strokeColor=#2e7d32;" parent="lane-system" vertex="1">
          <mxGeometry x="105" y="850" width="140" height="60" as="geometry" />
        </mxCell>
        <mxCell id="system-4" value="&lt;font style=&quot;font-size: 14px;&quot;&gt;&lt;b&gt;Update Status&lt;br&gt;Laporan&lt;/b&gt;&lt;/font&gt;" style="rounded=1;whiteSpace=wrap;html=1;fontSize=11;fillColor=#c8e6c9;strokeColor=#2e7d32;" parent="lane-system" vertex="1">
          <mxGeometry x="110" y="1120" width="140" height="60" as="geometry" />
        </mxCell>
        <mxCell id="arrow-7a" value="Tinggi" style="endArrow=classic;html=1;rounded=0;entryX=0.408;entryY=-0.031;entryDx=0;entryDy=0;entryPerimeter=0;" parent="lane-system" target="priority-high" edge="1">
          <mxGeometry width="50" height="50" relative="1" as="geometry">
            <mxPoint x="130" y="629.52" as="sourcePoint" />
            <mxPoint x="40" y="720" as="targetPoint" />
            <Array as="points">
              <mxPoint x="40" y="630" />
            </Array>
          </mxGeometry>
        </mxCell>
        <mxCell id="arrow-7c" value="Rendah" style="endArrow=classic;html=1;rounded=0;exitX=1;exitY=1;exitDx=0;exitDy=0;entryX=0.407;entryY=-0.012;entryDx=0;entryDy=0;entryPerimeter=0;" parent="lane-system" target="priority-low" edge="1">
          <mxGeometry x="-0.1771" width="50" height="50" relative="1" as="geometry">
            <mxPoint x="220" y="630" as="sourcePoint" />
            <mxPoint x="270" y="690" as="targetPoint" />
            <Array as="points">
              <mxPoint x="290" y="630" />
            </Array>
            <mxPoint as="offset" />
          </mxGeometry>
        </mxCell>
        <mxCell id="arrow-14" value="" style="endArrow=classic;html=1;rounded=0;entryX=1;entryY=0.5;entryDx=0;entryDy=0;" parent="lane-system" target="user-4" edge="1">
          <mxGeometry width="50" height="50" relative="1" as="geometry">
            <mxPoint x="179.29000000000002" y="1180" as="sourcePoint" />
            <mxPoint x="-50" y="1300" as="targetPoint" />
            <Array as="points">
              <mxPoint x="179" y="1290" />
            </Array>
          </mxGeometry>
        </mxCell>
        <mxCell id="QQmRotdV_-dXzQyFsFi5-1" value="" style="endArrow=classic;html=1;rounded=0;exitX=0.5;exitY=1;exitDx=0;exitDy=0;" parent="lane-system" edge="1">
          <mxGeometry width="50" height="50" relative="1" as="geometry">
            <mxPoint x="40" y="770" as="sourcePoint" />
            <mxPoint x="100" y="880" as="targetPoint" />
            <Array as="points">
              <mxPoint x="40" y="880" />
            </Array>
          </mxGeometry>
        </mxCell>
        <mxCell id="QQmRotdV_-dXzQyFsFi5-2" value="" style="endArrow=classic;html=1;rounded=0;exitX=0.5;exitY=1;exitDx=0;exitDy=0;" parent="lane-system" edge="1">
          <mxGeometry width="50" height="50" relative="1" as="geometry">
            <mxPoint x="300" y="770" as="sourcePoint" />
            <mxPoint x="250" y="880" as="targetPoint" />
            <Array as="points">
              <mxPoint x="300" y="830" />
              <mxPoint x="300" y="880" />
            </Array>
          </mxGeometry>
        </mxCell>
        <mxCell id="lane-admin" value="ADMIN (PERANGKAT DESA)" style="swimlane;startSize=40;html=1;fontSize=14;fontStyle=1;fillColor=#fff3e0;strokeColor=#e65100;swimlaneFillColor=#fffaf0;" parent="1" vertex="1">
          <mxGeometry x="710" y="80" width="350" height="1510" as="geometry" />
        </mxCell>
        <mxCell id="admin-1" value="&lt;b&gt;&lt;font style=&quot;font-size: 14px;&quot;&gt;Menerima Laporan&lt;br&gt;di Dashboard&lt;/font&gt;&lt;/b&gt;" style="rounded=1;whiteSpace=wrap;html=1;fontSize=11;fillColor=#ffcc80;strokeColor=#e65100;" parent="lane-admin" vertex="1">
          <mxGeometry x="105" y="850" width="140" height="60" as="geometry" />
        </mxCell>
        <mxCell id="admin-decision" value="&lt;font style=&quot;font-size: 14px;&quot;&gt;&lt;b&gt;Verifikasi&lt;br&gt;Laporan?&lt;/b&gt;&lt;/font&gt;" style="rhombus;whiteSpace=wrap;html=1;fontSize=11;fillColor=#fff9c4;strokeColor=#f57f17;" parent="lane-admin" vertex="1">
          <mxGeometry x="130" y="950" width="90" height="100" as="geometry" />
        </mxCell>
        <mxCell id="admin-2" value="&lt;font style=&quot;font-size: 14px;&quot;&gt;&lt;b&gt;Meneruskan ke&lt;br&gt;Petugas Lapangan / Lapora Ke Pihak Yang Berwanang&lt;/b&gt;&lt;/font&gt;" style="rounded=1;whiteSpace=wrap;html=1;fontSize=11;fillColor=#ffcc80;strokeColor=#e65100;" parent="lane-admin" vertex="1">
          <mxGeometry x="105" y="1120" width="145" height="70" as="geometry" />
        </mxCell>
        <mxCell id="arrow-reject" value="Ditolak" style="endArrow=classic;html=1;rounded=0;entryX=1;entryY=0.5;entryDx=0;entryDy=0;strokeColor=#d32f2f;exitX=0;exitY=0.5;exitDx=0;exitDy=0;" parent="lane-admin" source="admin-decision" edge="1">
          <mxGeometry width="50" height="50" relative="1" as="geometry">
            <mxPoint x="110" y="1000" as="sourcePoint" />
            <mxPoint x="-100" y="1145" as="targetPoint" />
            <Array as="points">
              <mxPoint x="70" y="1000" />
              <mxPoint x="50" y="1000" />
              <mxPoint x="55" y="1145" />
            </Array>
          </mxGeometry>
        </mxCell>
        <mxCell id="arrow-9" value="" style="endArrow=classic;html=1;rounded=0;exitX=1;exitY=0.5;exitDx=0;exitDy=0;entryX=0;entryY=0.5;entryDx=0;entryDy=0;" parent="lane-admin" edge="1">
          <mxGeometry width="50" height="50" relative="1" as="geometry">
            <mxPoint x="-105" y="900" as="sourcePoint" />
            <mxPoint x="105" y="900" as="targetPoint" />
          </mxGeometry>
        </mxCell>
        <mxCell id="arrow-1" value="" style="endArrow=classic;html=1;rounded=0;exitX=0.5;exitY=1;exitDx=0;exitDy=0;entryX=0.5;entryY=0;entryDx=0;entryDy=0;" parent="1" target="user-1" edge="1">
          <mxGeometry width="50" height="50" relative="1" as="geometry">
            <mxPoint x="210" y="200" as="sourcePoint" />
            <mxPoint x="260" y="120" as="targetPoint" />
          </mxGeometry>
        </mxCell>
        <mxCell id="arrow-2" value="" style="endArrow=classic;html=1;rounded=0;exitX=0.5;exitY=1;exitDx=0;exitDy=0;entryX=0.5;entryY=0;entryDx=0;entryDy=0;" parent="1" source="user-1" target="user-2" edge="1">
          <mxGeometry width="50" height="50" relative="1" as="geometry">
            <mxPoint x="210" y="270" as="sourcePoint" />
            <mxPoint x="260" y="220" as="targetPoint" />
          </mxGeometry>
        </mxCell>
        <mxCell id="arrow-4" value="" style="endArrow=classic;html=1;rounded=0;entryX=0;entryY=0.5;entryDx=0;entryDy=0;exitX=0.5;exitY=1;exitDx=0;exitDy=0;" parent="1" source="user-2" target="system-1" edge="1">
          <mxGeometry width="50" height="50" relative="1" as="geometry">
            <mxPoint x="170" y="510" as="sourcePoint" />
            <mxPoint x="290" y="380" as="targetPoint" />
            <Array as="points">
              <mxPoint x="210" y="505" />
            </Array>
          </mxGeometry>
        </mxCell>
        <mxCell id="arrow-5" value="" style="endArrow=classic;html=1;rounded=0;exitX=0.5;exitY=1;exitDx=0;exitDy=0;entryX=0.5;entryY=0;entryDx=0;entryDy=0;" parent="1" source="system-1" target="system-2" edge="1">
          <mxGeometry width="50" height="50" relative="1" as="geometry">
            <mxPoint x="535" y="480" as="sourcePoint" />
            <mxPoint x="585" y="430" as="targetPoint" />
          </mxGeometry>
        </mxCell>
        <mxCell id="arrow-6" value="" style="endArrow=classic;html=1;rounded=0;exitX=0.5;exitY=1;exitDx=0;exitDy=0;entryX=0.5;entryY=0;entryDx=0;entryDy=0;" parent="1" source="system-2" target="system-decision" edge="1">
          <mxGeometry width="50" height="50" relative="1" as="geometry">
            <mxPoint x="535" y="600" as="sourcePoint" />
            <mxPoint x="585" y="550" as="targetPoint" />
          </mxGeometry>
        </mxCell>
        <mxCell id="arrow-7b" value="Sedang" style="endArrow=classic;html=1;rounded=0;exitX=0.5;exitY=1;exitDx=0;exitDy=0;entryX=0.5;entryY=0;entryDx=0;entryDy=0;" parent="1" source="system-decision" target="priority-medium" edge="1">
          <mxGeometry width="50" height="50" relative="1" as="geometry">
            <mxPoint x="535" y="680" as="sourcePoint" />
            <mxPoint x="585" y="630" as="targetPoint" />
          </mxGeometry>
        </mxCell>
        <mxCell id="arrow-8" value="" style="endArrow=classic;html=1;rounded=0;exitX=0.5;exitY=1;exitDx=0;exitDy=0;entryX=0.5;entryY=0;entryDx=0;entryDy=0;" parent="1" source="priority-medium" target="system-3" edge="1">
          <mxGeometry width="50" height="50" relative="1" as="geometry">
            <mxPoint x="535" y="780" as="sourcePoint" />
            <mxPoint x="585" y="730" as="targetPoint" />
          </mxGeometry>
        </mxCell>
        <mxCell id="arrow-10" value="" style="endArrow=classic;html=1;rounded=0;exitX=0.5;exitY=1;exitDx=0;exitDy=0;entryX=0.5;entryY=0;entryDx=0;entryDy=0;" parent="1" source="admin-1" target="admin-decision" edge="1">
          <mxGeometry width="50" height="50" relative="1" as="geometry">
            <mxPoint x="885" y="900" as="sourcePoint" />
            <mxPoint x="935" y="850" as="targetPoint" />
          </mxGeometry>
        </mxCell>
        <mxCell id="arrow-11" value="Diterima" style="endArrow=classic;html=1;rounded=0;exitX=0.5;exitY=1;exitDx=0;exitDy=0;entryX=0.5;entryY=0;entryDx=0;entryDy=0;" parent="1" source="admin-decision" target="admin-2" edge="1">
          <mxGeometry width="50" height="50" relative="1" as="geometry">
            <mxPoint x="885" y="1000" as="sourcePoint" />
            <mxPoint x="935" y="950" as="targetPoint" />
          </mxGeometry>
        </mxCell>
        <mxCell id="arrow-16" value="" style="endArrow=classic;html=1;rounded=0;exitX=0.5;exitY=1;exitDx=0;exitDy=0;entryX=0.5;entryY=0;entryDx=0;entryDy=0;" parent="1" source="user-4" edge="1">
          <mxGeometry width="50" height="50" relative="1" as="geometry">
            <mxPoint x="210" y="1240" as="sourcePoint" />
            <mxPoint x="220" y="1490" as="targetPoint" />
          </mxGeometry>
        </mxCell>
        <mxCell id="title" value="ACTIVITY DIAGRAM SISTEM INFORMASI PENGADUAN MASYARAKAT&lt;br&gt;DESA RAJAMANDALA KULON" style="rounded=0;whiteSpace=wrap;html=1;fontSize=16;fontStyle=1;fillColor=#1976d2;strokeColor=#0d47a1;fontColor=white;" parent="1" vertex="1">
          <mxGeometry x="200" y="10" width="700" height="50" as="geometry" />
        </mxCell>
        <mxCell id="arrow-12" value="" style="endArrow=classic;html=1;rounded=0;entryX=1;entryY=0.75;entryDx=0;entryDy=0;exitX=0.005;exitY=0.607;exitDx=0;exitDy=0;exitPerimeter=0;" parent="1" source="admin-2" target="system-4" edge="1">
          <mxGeometry width="50" height="50" relative="1" as="geometry">
            <mxPoint x="810" y="1245" as="sourcePoint" />
            <mxPoint x="640" y="1270" as="targetPoint" />
          </mxGeometry>
        </mxCell>
      </root>
    </mxGraphModel>
  </diagram>
</mxfile>
